<svg width="40" height="34" viewBox="0 0 40 34" xmlns="http://www.w3.org/2000/svg"><title>Shape</title><path d="M13.412 27.06c.3-1.5.7-3.1.9-4.6.3-4.1.5-8.1.7-12.2.1-1.9.4-3.8.8-5.7.3-1 .9-1.6 1.9-1.7 2.8-.2 5.6-.4 8.5-.6 3.2-.2 6.4-.4 9.5-.7.7-.1 1.4-.3 2.1-.5.7-.2 1 .1 1 .8-.1 2.3-.2 4.5-.3 6.8-.2 4.2-.4 8.3-1.3 12.4-.5 2.1-1.1 4.1-2.3 6-1.3 2-3.2 3.2-5.7 2.9-1.6-.2-3.2-.4-4.6-1.4-2.3-1.7-2.4-5-.3-7 2.5-2.4 6.4-2.3 9 .3.7.7 1.2 1.5 1.9 2.3.2-.7.4-1.3.6-2.1.7-3.3.8-6.6.8-9.9.1-2.7.2-5.4.8-8 0-.2 0-.3.1-.5-.8.2-1.6.4-2.4.5-1.4.2-2.8.3-4.1.4-2.5.1-5.1.1-7.6.3-1.8.1-3.6.3-5.4.5h-.1c-1.1.3-1.3.5-1.4 1.7-.1 2.4-.1 4.9-.2 7.3-.1 3.2-.3 6.3-.9 9.5-.4 2-1 4-2 5.8-1.4 2.4-3.5 3.6-6.5 3.1-1.3-.2-2.7-.5-3.9-1.2-1.7-1.1-2.5-3.6-1.7-5.5 1.3-2.9 4.9-4.2 7.8-3 1.9.8 3.2 2.1 4.1 4h.2z" stroke="#FFF" stroke-width="2" fill="#FFF" fill-rule="evenodd"/></svg>