<?xml version="1.0" encoding="UTF-8" standalone="no"?>
<svg width="40px" height="34px" viewBox="0 0 40 34" version="1.1" xmlns="http://www.w3.org/2000/svg" xmlns:xlink="http://www.w3.org/1999/xlink">
    <defs></defs>
    <g id="Tuinfeest" stroke="none" stroke-width="1" fill="none" fill-rule="evenodd">
        <g id="Tuinfeest-home-Copy" transform="translate(-512.000000, -536.000000)" stroke="#B32571" stroke-width="2" fill="#B32571">
            <path d="M525.411947,563.060825 C525.711947,561.560825 526.111947,559.960825 526.311947,558.460825 C526.611947,554.360825 526.811947,550.360825 527.011947,546.260825 C527.111947,544.360825 527.411947,542.460825 527.811947,540.560825 C528.111947,539.560825 528.711947,538.960825 529.711947,538.860825 C532.511947,538.660825 535.311947,538.460825 538.211947,538.260825 C541.411947,538.060825 544.611947,537.860825 547.711947,537.560825 C548.411947,537.460825 549.111947,537.260825 549.811947,537.060825 C550.511947,536.860825 550.811947,537.160825 550.811947,537.860825 C550.711947,540.160825 550.611947,542.360825 550.511947,544.660825 C550.311947,548.860825 550.111947,552.960825 549.211947,557.060825 C548.711947,559.160825 548.111947,561.160825 546.911947,563.060825 C545.611947,565.060825 543.711947,566.260825 541.211947,565.960825 C539.611947,565.760825 538.011947,565.560825 536.611947,564.560825 C534.311947,562.860825 534.211947,559.560825 536.311947,557.560825 C538.811947,555.160825 542.711947,555.260825 545.311947,557.860825 C546.011947,558.560825 546.511947,559.360825 547.211947,560.160825 C547.411947,559.460825 547.611947,558.860825 547.811947,558.060825 C548.511947,554.760825 548.611947,551.460825 548.611947,548.160825 C548.711947,545.460825 548.811947,542.760825 549.411947,540.160825 C549.411947,539.960825 549.411947,539.860825 549.511947,539.660825 C548.711947,539.860825 547.911947,540.060825 547.111947,540.160825 C545.711947,540.360825 544.311947,540.460825 543.011947,540.560825 C540.511947,540.660825 537.911947,540.660825 535.411947,540.860825 C533.611947,540.960825 531.811947,541.160825 530.011947,541.360825 L529.911947,541.360825 C528.811947,541.660825 528.611947,541.860825 528.511947,543.060825 C528.411947,545.460825 528.411947,547.960825 528.311947,550.360825 C528.211947,553.560825 528.011947,556.660825 527.411947,559.860825 C527.011947,561.860825 526.411947,563.860825 525.411947,565.660825 C524.011947,568.060825 521.911947,569.260825 518.911947,568.760825 C517.611947,568.560825 516.211947,568.260825 515.011947,567.560825 C513.311947,566.460825 512.511947,563.960825 513.311947,562.060825 C514.611947,559.160825 518.211947,557.860825 521.111947,559.060825 C523.011947,559.860825 524.311947,561.160825 525.211947,563.060825 C525.211947,563.060825 525.311947,563.060825 525.411947,563.060825 L525.411947,563.060825 Z" id="Shape"></path>
        </g>
    </g>
</svg>