<?xml version="1.0" encoding="UTF-8"?>
<svg width="17px" height="14px" viewBox="0 0 17 14" version="1.1" xmlns="http://www.w3.org/2000/svg" xmlns:xlink="http://www.w3.org/1999/xlink">
    <defs></defs>
    <g id="Tuinfeest" stroke="none" stroke-width="1" fill="none" fill-rule="evenodd">
        <g id="Tuinfeest-home-Copy" transform="translate(-294.000000, -1742.000000)" fill="#FF0000">
            <g id="Group-2" transform="translate(54.000000, 1478.000000)">
                <g id="Group-5" transform="translate(159.000000, 256.000000)">
                    <g id="1485113378_InterfaceExpendet-03" transform="translate(81.000000, 8.000000)">
                        <g id="Group">
                            <path d="M8.24773961,13.5484684 C8.09171099,13.2003752 8.17425174,12.7474044 8.43199182,12.5367496 L15.2040599,7 L8.43199182,1.46325042 C8.17425171,1.25259562 8.09171096,0.799624811 8.24773961,0.451531647 C8.40350198,0.103438521 8.73899012,-0.00827510526 8.99646399,0.202559626 L16.5396224,6.36965461 C16.70284,6.50313528 16.8026877,6.74221321 16.8026877,7 C16.8026877,7.25778679 16.70284,7.49686472 16.5396224,7.63034539 C16.5396224,7.63034539 13.8859524,9.79991868 12.5591174,10.8847053 L8.99646396,13.7974404 C8.90833175,13.8697574 8.81088042,13.904117 8.71476042,13.904117 C8.53024193,13.904117 8.35024986,13.7774722 8.24773961,13.5484684 Z" id="Shape"></path>
                            <path d="M14.722488,7.73684211 L0.732057416,7.73684211 C0.372701102,7.73684211 0.0813397129,7.40691818 0.0813397129,7 C0.0813397129,6.59308182 0.372701102,6.26315789 0.732057416,6.26315789 L14.722488,6.26315789 C15.0818444,6.26315789 15.3732057,6.59308182 15.3732057,7 C15.3732057,7.40691818 15.0818444,7.73684211 14.722488,7.73684211 L14.722488,7.73684211 Z" id="Shape"></path>
                        </g>
                    </g>
                </g>
            </g>
        </g>
    </g>
</svg>