<?xml version="1.0" encoding="UTF-8"?>
<svg width="32px" height="60px" viewBox="0 0 32 60" version="1.1" xmlns="http://www.w3.org/2000/svg" xmlns:xlink="http://www.w3.org/1999/xlink">
    <!-- Generator: Sketch 41.2 (35397) - http://www.bohemiancoding.com/sketch -->
    <title>Shape</title>
    <desc>Created with Sketch.</desc>
    <defs></defs>
    <g id="Tuinfeest" stroke="none" stroke-width="1" fill="none" fill-rule="evenodd">
        <g id="Tuinfeest-band-detail" transform="translate(-267.000000, -173.000000)" stroke="#FFFFFF" stroke-width="2" fill="#FFFFFF">
            <path d="M278.912045,198.696703 C281.154671,197.44347 283.397298,196.849834 285.903762,196.915793 C289.267702,197.047713 292.169925,198.234985 294.082753,201.071248 C295.270026,202.786198 295.533864,204.764986 295.138107,206.809734 C294.676389,208.9864 293.621036,210.833269 292.169925,212.548219 C292.103965,212.614178 292.038005,212.680138 292.038005,212.746098 C292.697601,213.537613 293.357197,214.197209 293.884874,214.988724 C296.25942,218.154785 297.512652,221.716603 296.919016,225.674179 C296.655177,227.652968 295.797703,229.367917 294.280632,230.62115 C292.235884,232.27014 289.729419,232.468018 287.486793,231.082867 C285.310126,229.763675 283.924974,227.784887 283.661136,225.212462 C283.463257,223.629432 283.661136,222.112361 284.71649,220.793169 C285.573964,219.737815 286.629318,219.473977 287.816591,220.067613 C289.201742,220.727209 290.191137,221.716603 290.323056,223.365593 C290.389015,223.95923 290.257096,224.552866 289.795379,225.014583 C289.399621,225.476301 288.805985,225.740139 288.212348,225.54226 C287.486793,225.278422 286.761237,224.948624 286.101641,224.618826 C286.101641,226.267816 286.167601,227.982766 287.420833,229.433877 C288.542146,230.753069 290.323056,231.214786 291.972046,230.55519 C294.742349,229.433877 296.127501,227.19125 296.325379,224.289028 C296.523258,221.782563 295.665783,219.539937 294.346591,217.495189 C293.555076,216.241957 292.499723,215.120643 291.576288,213.93337 C291.444369,213.801451 291.31245,213.669532 291.180531,213.537613 C290.257096,214.131249 289.399621,214.790845 288.476187,215.384482 C286.563358,216.571755 284.386692,217.231351 282.144065,217.627108 C279.835479,218.022866 277.526893,217.956906 275.284267,217.29731 C273.1076,216.703674 271.194771,215.64832 269.74366,213.801451 C268.292549,211.888623 267.764872,209.645996 268.09467,207.271451 C268.556387,203.841551 270.205377,200.939329 272.250125,198.234985 C273.1076,197.113672 274.096994,195.992359 275.020428,194.937005 C275.284267,194.673167 275.284267,194.409328 275.152347,194.07953 C273.767196,190.583672 273.173559,186.889934 273.04164,183.130237 C272.975681,181.085489 273.173559,178.974782 274.031034,177.061953 C275.614065,173.368216 278.912045,173.302256 281.550429,175.347004 C283.924974,177.259832 284.782449,179.898216 284.58457,182.866398 C284.386692,185.9665 283.199419,188.670843 281.484469,191.177308 C280.363156,192.694379 279.109923,194.14549 277.922651,195.596601 C277.658812,195.926399 277.592853,196.124278 277.790731,196.520036 C278.252449,197.179632 278.582247,197.905187 278.912045,198.696703 L278.912045,198.696703 Z M276.735378,197.047713 C276.471539,197.311551 276.273661,197.50943 276.075782,197.707309 C275.020428,199.15842 273.899115,200.543571 272.843761,201.994683 C271.524569,203.907511 270.535175,206.018218 270.073458,208.260845 C269.74366,210.107714 269.875579,211.954582 271.062852,213.537613 C272.711842,215.58236 275.020428,216.175997 277.526893,216.175997 C279.769519,216.175997 281.814267,215.64832 283.859015,214.790845 C285.837803,213.99933 287.552752,212.812057 289.201742,211.426906 C287.486793,209.777916 285.771843,208.260845 284.122853,206.611855 C282.473863,204.962865 280.890833,203.181955 279.307802,201.467006 C277.329014,202.654279 276.669418,205.886299 277.790731,207.865087 C278.120529,208.458724 278.516287,208.920441 279.241843,209.05236 C279.373762,209.05236 279.505681,209.250239 279.70356,209.382158 C279.505681,209.448118 279.307802,209.645996 279.175883,209.645996 C278.05457,209.514077 277.197095,208.920441 276.669418,207.997006 C275.482145,206.084178 275.416186,204.03943 276.273661,201.994683 C276.735378,201.005289 277.329014,200.081854 277.922651,199.09246 C277.526893,198.564783 277.131135,197.839228 276.735378,197.047713 L276.735378,197.047713 Z M276.603459,193.419934 C276.801337,193.222056 276.933257,193.156096 277.065176,193.024177 C277.724772,192.364581 278.384368,191.704985 278.978004,190.979429 C280.758914,188.934682 282.407904,186.758015 283.331338,184.18559 C283.924974,182.668519 284.188813,181.151449 283.859015,179.502459 C283.331338,176.995994 280.956792,175.808721 278.648206,176.864075 C277.329014,177.457711 276.471539,178.579024 275.943863,179.898216 C275.086388,181.877004 274.888509,184.053671 275.086388,186.164378 C275.284267,188.604884 275.811943,190.979429 276.603459,193.419934 L276.603459,193.419934 Z M280.363156,200.80741 C281.35255,202.588319 286.695278,208.128926 290.059217,210.76731 C290.520935,210.107714 291.048611,209.448118 291.444369,208.788522 C292.829521,206.413976 292.301844,203.775592 290.191137,201.994683 C288.278308,200.345693 285.969722,199.686097 283.463257,199.883975 C282.407904,199.883975 281.35255,200.147814 280.363156,200.80741 L280.363156,200.80741 Z" id="Shape"></path>
        </g>
    </g>
</svg>