<?xml version="1.0" encoding="UTF-8" standalone="no"?>
<svg width="174px" height="174px" viewBox="0 0 174 174" version="1.1" xmlns="http://www.w3.org/2000/svg" xmlns:xlink="http://www.w3.org/1999/xlink">
    <defs></defs>
    <g id="Page-1" stroke="none" stroke-width="1" fill="none" fill-rule="evenodd">
        <path d="M96.051,87 L171.526,11.525 C174.026,9.025 174.026,4.974 171.526,2.474 C169.026,-0.026 164.975,-0.026 162.475,2.474 L87,77.949 L11.525,2.475 C9.025,-0.025 4.974,-0.025 2.474,2.475 C-0.026,4.975 -0.026,9.026 2.474,11.526 L77.949,87 L2.474,162.475 C-0.026,164.975 -0.026,169.026 2.474,171.526 C3.724,172.776 5.362,173.401 6.999,173.401 C8.636,173.401 10.274,172.776 11.524,171.526 L87,96.051 L162.475,171.526 C163.725,172.776 165.363,173.401 167,173.401 C168.637,173.401 170.275,172.776 171.525,171.526 C174.025,169.026 174.025,164.975 171.525,162.475 L96.051,87 L96.051,87 Z" id="Shape" fill="#FF0000"></path>
    </g>
</svg>
