<?xml version="1.0" encoding="UTF-8"?>
<svg width="40px" height="34px" viewBox="0 0 40 34" version="1.1" xmlns="http://www.w3.org/2000/svg" xmlns:xlink="http://www.w3.org/1999/xlink">
    <!-- Generator: Sketch 41.2 (35397) - http://www.bohemiancoding.com/sketch -->
    <title>Shape</title>
    <desc>Created with Sketch.</desc>
    <defs></defs>
    <g id="Tuinfeest" stroke="none" stroke-width="1" fill="none" fill-rule="evenodd">
        <g id="Tuinfeest-band-detail" transform="translate(-657.000000, -334.000000)" stroke="#FFFFFF" stroke-width="2" fill="#FFFFFF">
            <path d="M670.411947,361.060825 C670.711947,359.560825 671.111947,357.960825 671.311947,356.460825 C671.611947,352.360825 671.811947,348.360825 672.011947,344.260825 C672.111947,342.360825 672.411947,340.460825 672.811947,338.560825 C673.111947,337.560825 673.711947,336.960825 674.711947,336.860825 C677.511947,336.660825 680.311947,336.460825 683.211947,336.260825 C686.411947,336.060825 689.611947,335.860825 692.711947,335.560825 C693.411947,335.460825 694.111947,335.260825 694.811947,335.060825 C695.511947,334.860825 695.811947,335.160825 695.811947,335.860825 C695.711947,338.160825 695.611947,340.360825 695.511947,342.660825 C695.311947,346.860825 695.111947,350.960825 694.211947,355.060825 C693.711947,357.160825 693.111947,359.160825 691.911947,361.060825 C690.611947,363.060825 688.711947,364.260825 686.211947,363.960825 C684.611947,363.760825 683.011947,363.560825 681.611947,362.560825 C679.311947,360.860825 679.211947,357.560825 681.311947,355.560825 C683.811947,353.160825 687.711947,353.260825 690.311947,355.860825 C691.011947,356.560825 691.511947,357.360825 692.211947,358.160825 C692.411947,357.460825 692.611947,356.860825 692.811947,356.060825 C693.511947,352.760825 693.611947,349.460825 693.611947,346.160825 C693.711947,343.460825 693.811947,340.760825 694.411947,338.160825 C694.411947,337.960825 694.411947,337.860825 694.511947,337.660825 C693.711947,337.860825 692.911947,338.060825 692.111947,338.160825 C690.711947,338.360825 689.311947,338.460825 688.011947,338.560825 C685.511947,338.660825 682.911947,338.660825 680.411947,338.860825 C678.611947,338.960825 676.811947,339.160825 675.011947,339.360825 L674.911947,339.360825 C673.811947,339.660825 673.611947,339.860825 673.511947,341.060825 C673.411947,343.460825 673.411947,345.960825 673.311947,348.360825 C673.211947,351.560825 673.011947,354.660825 672.411947,357.860825 C672.011947,359.860825 671.411947,361.860825 670.411947,363.660825 C669.011947,366.060825 666.911947,367.260825 663.911947,366.760825 C662.611947,366.560825 661.211947,366.260825 660.011947,365.560825 C658.311947,364.460825 657.511947,361.960825 658.311947,360.060825 C659.611947,357.160825 663.211947,355.860825 666.111947,357.060825 C668.011947,357.860825 669.311947,359.160825 670.211947,361.060825 C670.211947,361.060825 670.311947,361.060825 670.411947,361.060825 L670.411947,361.060825 Z" id="Shape"></path>
        </g>
    </g>
</svg>