<?xml version="1.0" encoding="UTF-8" standalone="no"?>
<svg width="32px" height="14px" viewBox="0 0 32 14" version="1.1" xmlns="http://www.w3.org/2000/svg" xmlns:xlink="http://www.w3.org/1999/xlink">
    <defs></defs>
    <g id="Page-1" stroke="none" stroke-width="1" fill="none" fill-rule="evenodd">
        <g id="1486236431_Menu2" transform="translate(16.000000, 7.000000) scale(-1, 1) translate(-16.000000, -7.000000) " fill="#FF0000">
            <path d="M31,2 C31.552,2 32,1.552 32,1 C32,0.448 31.552,0 31,0 L1,0 C0.448,0 0,0.448 0,1 C0,1.552 0.448,2 1,2 L31,2 Z" id="Shape"></path>
            <path d="M1,6 C0.448,6 0,6.448 0,7 C0,7.552 0.448,8 1,8 L31,8 C31.552,8 32,7.552 32,7 C32,6.448 31.552,6 31,6 L1,6 Z" id="Shape"></path>
            <path d="M31,12 L11,12 C10.448,12 10,12.448 10,13 C10,13.552 10.448,14 11,14 L31,14 C31.552,14 32,13.552 32,13 C32,12.448 31.552,12 31,12 L31,12 Z" id="Shape"></path>
        </g>
    </g>
</svg>
