<?xml version="1.0" encoding="UTF-8" standalone="no"?>
<svg width="32px" height="60px" viewBox="0 0 32 60" version="1.1" xmlns="http://www.w3.org/2000/svg" xmlns:xlink="http://www.w3.org/1999/xlink">
    <defs></defs>
    <g id="Tuinfeest" stroke="none" stroke-width="1" fill="none" fill-rule="evenodd">
        <g id="Tuinfeest-home-Copy" transform="translate(-172.000000, -456.000000)" stroke="#003B69" stroke-width="2" fill="#003B69">
            <path d="M183.912045,481.696703 C186.154671,480.44347 188.397298,479.849834 190.903762,479.915793 C194.267702,480.047713 197.169925,481.234985 199.082753,484.071248 C200.270026,485.786198 200.533864,487.764986 200.138107,489.809734 C199.676389,491.9864 198.621036,493.833269 197.169925,495.548219 C197.103965,495.614178 197.038005,495.680138 197.038005,495.746098 C197.697601,496.537613 198.357197,497.197209 198.884874,497.988724 C201.25942,501.154785 202.512652,504.716603 201.919016,508.674179 C201.655177,510.652968 200.797703,512.367917 199.280632,513.62115 C197.235884,515.27014 194.729419,515.468018 192.486793,514.082867 C190.310126,512.763675 188.924974,510.784887 188.661136,508.212462 C188.463257,506.629432 188.661136,505.112361 189.71649,503.793169 C190.573964,502.737815 191.629318,502.473977 192.816591,503.067613 C194.201742,503.727209 195.191137,504.716603 195.323056,506.365593 C195.389015,506.95923 195.257096,507.552866 194.795379,508.014583 C194.399621,508.476301 193.805985,508.740139 193.212348,508.54226 C192.486793,508.278422 191.761237,507.948624 191.101641,507.618826 C191.101641,509.267816 191.167601,510.982766 192.420833,512.433877 C193.542146,513.753069 195.323056,514.214786 196.972046,513.55519 C199.742349,512.433877 201.127501,510.19125 201.325379,507.289028 C201.523258,504.782563 200.665783,502.539937 199.346591,500.495189 C198.555076,499.241957 197.499723,498.120643 196.576288,496.93337 C196.444369,496.801451 196.31245,496.669532 196.180531,496.537613 C195.257096,497.131249 194.399621,497.790845 193.476187,498.384482 C191.563358,499.571755 189.386692,500.231351 187.144065,500.627108 C184.835479,501.022866 182.526893,500.956906 180.284267,500.29731 C178.1076,499.703674 176.194771,498.64832 174.74366,496.801451 C173.292549,494.888623 172.764872,492.645996 173.09467,490.271451 C173.556387,486.841551 175.205377,483.939329 177.250125,481.234985 C178.1076,480.113672 179.096994,478.992359 180.020428,477.937005 C180.284267,477.673167 180.284267,477.409328 180.152347,477.07953 C178.767196,473.583672 178.173559,469.889934 178.04164,466.130237 C177.975681,464.085489 178.173559,461.974782 179.031034,460.061953 C180.614065,456.368216 183.912045,456.302256 186.550429,458.347004 C188.924974,460.259832 189.782449,462.898216 189.58457,465.866398 C189.386692,468.9665 188.199419,471.670843 186.484469,474.177308 C185.363156,475.694379 184.109923,477.14549 182.922651,478.596601 C182.658812,478.926399 182.592853,479.124278 182.790731,479.520036 C183.252449,480.179632 183.582247,480.905187 183.912045,481.696703 L183.912045,481.696703 Z M181.735378,480.047713 C181.471539,480.311551 181.273661,480.50943 181.075782,480.707309 C180.020428,482.15842 178.899115,483.543571 177.843761,484.994683 C176.524569,486.907511 175.535175,489.018218 175.073458,491.260845 C174.74366,493.107714 174.875579,494.954582 176.062852,496.537613 C177.711842,498.58236 180.020428,499.175997 182.526893,499.175997 C184.769519,499.175997 186.814267,498.64832 188.859015,497.790845 C190.837803,496.99933 192.552752,495.812057 194.201742,494.426906 C192.486793,492.777916 190.771843,491.260845 189.122853,489.611855 C187.473863,487.962865 185.890833,486.181955 184.307802,484.467006 C182.329014,485.654279 181.669418,488.886299 182.790731,490.865087 C183.120529,491.458724 183.516287,491.920441 184.241843,492.05236 C184.373762,492.05236 184.505681,492.250239 184.70356,492.382158 C184.505681,492.448118 184.307802,492.645996 184.175883,492.645996 C183.05457,492.514077 182.197095,491.920441 181.669418,490.997006 C180.482145,489.084178 180.416186,487.03943 181.273661,484.994683 C181.735378,484.005289 182.329014,483.081854 182.922651,482.09246 C182.526893,481.564783 182.131135,480.839228 181.735378,480.047713 L181.735378,480.047713 Z M181.603459,476.419934 C181.801337,476.222056 181.933257,476.156096 182.065176,476.024177 C182.724772,475.364581 183.384368,474.704985 183.978004,473.979429 C185.758914,471.934682 187.407904,469.758015 188.331338,467.18559 C188.924974,465.668519 189.188813,464.151449 188.859015,462.502459 C188.331338,459.995994 185.956792,458.808721 183.648206,459.864075 C182.329014,460.457711 181.471539,461.579024 180.943863,462.898216 C180.086388,464.877004 179.888509,467.053671 180.086388,469.164378 C180.284267,471.604884 180.811943,473.979429 181.603459,476.419934 L181.603459,476.419934 Z M185.363156,483.80741 C186.35255,485.588319 191.695278,491.128926 195.059217,493.76731 C195.520935,493.107714 196.048611,492.448118 196.444369,491.788522 C197.829521,489.413976 197.301844,486.775592 195.191137,484.994683 C193.278308,483.345693 190.969722,482.686097 188.463257,482.883975 C187.407904,482.883975 186.35255,483.147814 185.363156,483.80741 L185.363156,483.80741 Z" id="Shape"></path>
        </g>
    </g>
</svg>