<?xml version="1.0" encoding="UTF-8" standalone="no"?>
<svg width="79px" height="79px" viewBox="0 0 79 79" version="1.1" xmlns="http://www.w3.org/2000/svg" xmlns:xlink="http://www.w3.org/1999/xlink">
    <defs></defs>
    <g id="Tuinfeest" stroke="none" stroke-width="1" fill="none" fill-rule="evenodd">
        <g id="Tuinfeest-home-Copy" transform="translate(-464.000000, -607.000000)" fill="#FF0000">
            <path d="M542.737806,646.403476 C542.737806,668.242554 525.1809,685.371242 504.198256,685.79946 C482.14507,686.227677 464.159946,668.456662 464.159946,646.403476 C464.159946,624.778506 481.502744,607.649818 502.271279,607.007492 C524.752682,606.579275 542.737806,624.564398 542.737806,646.403476 L542.737806,646.403476 Z M496.704455,646.617584 L496.704455,665.030925 L496.704455,671.240074 C496.704455,671.668292 496.918563,671.8824 497.346781,671.8824 L500.130193,671.8824 C500.772518,671.8824 500.772518,671.668292 500.772518,671.240074 L500.772518,622.851529 L500.772518,621.780986 C500.772518,621.352769 500.55841,621.352769 500.344301,621.352769 L497.560889,621.352769 C496.918563,621.352769 496.918563,621.566877 496.918563,621.995094 C496.704455,630.131222 496.704455,638.267349 496.704455,646.617584 L496.704455,646.617584 Z M512.548492,626.063158 C512.7626,626.277267 512.548492,626.491375 512.548492,626.705484 L512.548492,665.887359 L512.548492,666.743794 C512.548492,667.172011 512.548492,667.172011 512.976709,667.172011 L515.97423,667.172011 C516.616555,667.172011 516.616555,666.957902 516.616555,666.529685 L516.616555,626.919592 L516.616555,626.277267 C516.616555,626.063158 516.616555,625.849049 516.188338,625.849049 C515.117795,625.849049 513.833143,625.849049 512.548492,626.063158 L512.548492,626.063158 Z M508.694537,646.617584 L508.694537,632.058199 C508.694537,631.629982 508.480428,631.415873 508.052211,631.415873 L505.268799,631.415873 C504.840582,631.415873 504.626473,631.415873 504.626473,632.058199 L504.626473,657.323015 L504.626473,660.962861 C504.626473,661.391078 504.840582,661.605187 505.268799,661.605187 L508.052211,661.605187 C508.480428,661.605187 508.694537,661.391078 508.694537,660.962861 L508.694537,646.617584 L508.694537,646.617584 Z M492.636391,646.617584 L492.636391,635.483937 C492.636391,635.05572 492.636391,634.841611 491.994065,634.841611 L490.281197,634.841611 C489.852979,634.841611 488.996545,634.627502 488.782436,634.841611 C488.354219,635.269828 488.782436,635.912154 488.782436,636.55448 L488.782436,657.537123 C488.782436,657.965341 488.996545,658.179449 489.424762,658.179449 L492.208174,658.179449 C492.636391,658.179449 492.8505,657.965341 492.8505,657.537123 C492.636391,653.897277 492.636391,650.257431 492.636391,646.617584 L492.636391,646.617584 Z M520.684619,646.403476 L520.684619,657.537123 C520.684619,657.965341 520.684619,658.179449 521.326945,658.179449 L524.110357,658.179449 C524.538574,658.179449 524.752682,657.965341 524.752682,657.537123 L524.752682,640.622543 L524.752682,635.269828 C524.752682,634.841611 524.752682,634.841611 524.324465,634.841611 L521.326945,634.841611 C520.898728,634.841611 520.684619,635.05572 520.684619,635.483937 C520.684619,639.123783 520.684619,642.763629 520.684619,646.403476 L520.684619,646.403476 Z M484.714373,646.617584 L484.714373,646.617584 L484.714373,641.478978 C484.714373,641.050761 484.714373,641.050761 484.286156,641.050761 L481.288635,641.050761 C481.074526,641.050761 480.860418,641.050761 480.860418,641.478978 L480.860418,651.9703 C480.860418,652.398517 481.074526,652.398517 481.288635,652.398517 L484.286156,652.398517 C484.714373,652.398517 484.714373,652.184408 484.714373,651.9703 L484.714373,646.617584 L484.714373,646.617584 Z M532.674701,646.617584 L532.674701,644.048281 C532.674701,643.620064 532.674701,643.620064 532.246484,643.620064 L529.034855,643.620064 C528.820746,643.620064 528.606637,643.620064 528.606637,644.048281 L528.606637,649.186888 C528.606637,649.400996 528.606637,649.615105 529.034855,649.615105 L532.246484,649.615105 C532.674701,649.615105 532.674701,649.400996 532.674701,649.186888 L532.674701,646.617584 L532.674701,646.617584 Z M478.077006,646.617584 L478.077006,644.690607 C478.077006,644.476498 478.077006,644.26239 477.648789,644.26239 L474.223051,644.26239 C474.008942,644.26239 473.794834,644.26239 473.794834,644.690607 L473.794834,648.544562 C473.794834,648.75867 473.794834,648.972779 474.223051,648.972779 L477.43468,648.972779 C477.648789,648.972779 477.862897,648.972779 477.862897,648.544562 C478.077006,647.688127 478.077006,647.25991 478.077006,646.617584 L478.077006,646.617584 Z" id="Shape"></path>
        </g>
    </g>
</svg>
