<?xml version="1.0" encoding="UTF-8"?>
<svg width="1027px" height="402px" viewBox="0 0 1027 402" version="1.1" xmlns="http://www.w3.org/2000/svg" xmlns:xlink="http://www.w3.org/1999/xlink">
    <!-- Generator: Sketch 41.2 (35397) - http://www.bohemiancoding.com/sketch -->
    <title>a-link</title>
    <desc>Created with Sketch.</desc>
    <defs></defs>
    <g id="Page-1" stroke="none" stroke-width="1" fill="none" fill-rule="evenodd">
        <g id="a-link" fill="#FF0000">
            <path d="M1025.806,401.743 L1026.162,361.312 C1026.162,361.312 1001.26,370.728 989.007,373.237 C860.183,399.305 756.21,335.428 691.562,294.654 C670.975,281.677 614.795,252.124 584.912,260.721 C544.106,272.527 568.732,315.647 491.984,310.598 C464.308,308.811 448.095,284.886 442.879,261.25 C437.764,239.07 455.239,213.704 475.075,204.2 C507.397,188.952 547.703,205.506 584.324,218.205 C654.471,242.74 723.312,196.345 674.17,124.053 C602.25,18.249 436.472,33.185 396.537,38.008 C217.923,59.891 89.527,38.424 0.14,0.751 L1,396.851 L1025.806,401.743 L1025.806,401.743 Z" id="a"></path>
            <path d="M543.577859,253.403476 C543.577859,275.242554 526.020953,292.371242 505.03831,292.79946 C482.985123,293.227677 465,275.456662 465,253.403476 C465,231.778506 482.342797,214.649818 503.111332,214.007492 C525.592736,213.579275 543.577859,231.564398 543.577859,253.403476 L543.577859,253.403476 Z M497.544508,253.617584 L497.544508,272.030925 L497.544508,278.240074 C497.544508,278.668292 497.758617,278.8824 498.186834,278.8824 L500.970246,278.8824 C501.612572,278.8824 501.612572,278.668292 501.612572,278.240074 L501.612572,229.851529 L501.612572,228.780986 C501.612572,228.352769 501.398463,228.352769 501.184355,228.352769 L498.400943,228.352769 C497.758617,228.352769 497.758617,228.566877 497.758617,228.995094 C497.544508,237.131222 497.544508,245.267349 497.544508,253.617584 L497.544508,253.617584 Z M513.388545,233.063158 C513.602654,233.277267 513.388545,233.491375 513.388545,233.705484 L513.388545,272.887359 L513.388545,273.743794 C513.388545,274.172011 513.388545,274.172011 513.816763,274.172011 L516.814283,274.172011 C517.456609,274.172011 517.456609,273.957902 517.456609,273.529685 L517.456609,233.919592 L517.456609,233.277267 C517.456609,233.063158 517.456609,232.849049 517.028392,232.849049 C515.957849,232.849049 514.673197,232.849049 513.388545,233.063158 L513.388545,233.063158 Z M509.53459,253.617584 L509.53459,239.058199 C509.53459,238.629982 509.320482,238.415873 508.892265,238.415873 L506.108853,238.415873 C505.680635,238.415873 505.466527,238.415873 505.466527,239.058199 L505.466527,264.323015 L505.466527,267.962861 C505.466527,268.391078 505.680635,268.605187 506.108853,268.605187 L508.892265,268.605187 C509.320482,268.605187 509.53459,268.391078 509.53459,267.962861 L509.53459,253.617584 L509.53459,253.617584 Z M493.476445,253.617584 L493.476445,242.483937 C493.476445,242.05572 493.476445,241.841611 492.834119,241.841611 L491.12125,241.841611 C490.693033,241.841611 489.836599,241.627502 489.62249,241.841611 C489.194273,242.269828 489.62249,242.912154 489.62249,243.55448 L489.62249,264.537123 C489.62249,264.965341 489.836599,265.179449 490.264816,265.179449 L493.048228,265.179449 C493.476445,265.179449 493.690553,264.965341 493.690553,264.537123 C493.476445,260.897277 493.476445,257.257431 493.476445,253.617584 L493.476445,253.617584 Z M521.524672,253.403476 L521.524672,264.537123 C521.524672,264.965341 521.524672,265.179449 522.166998,265.179449 L524.95041,265.179449 C525.378627,265.179449 525.592736,264.965341 525.592736,264.537123 L525.592736,247.622543 L525.592736,242.269828 C525.592736,241.841611 525.592736,241.841611 525.164519,241.841611 L522.166998,241.841611 C521.738781,241.841611 521.524672,242.05572 521.524672,242.483937 C521.524672,246.123783 521.524672,249.763629 521.524672,253.403476 L521.524672,253.403476 Z M485.554426,253.617584 L485.554426,253.617584 L485.554426,248.478978 C485.554426,248.050761 485.554426,248.050761 485.126209,248.050761 L482.128689,248.050761 C481.91458,248.050761 481.700471,248.050761 481.700471,248.478978 L481.700471,258.9703 C481.700471,259.398517 481.91458,259.398517 482.128689,259.398517 L485.126209,259.398517 C485.554426,259.398517 485.554426,259.184408 485.554426,258.9703 L485.554426,253.617584 L485.554426,253.617584 Z M533.514754,253.617584 L533.514754,251.048281 C533.514754,250.620064 533.514754,250.620064 533.086537,250.620064 L529.874908,250.620064 C529.6608,250.620064 529.446691,250.620064 529.446691,251.048281 L529.446691,256.186888 C529.446691,256.400996 529.446691,256.615105 529.874908,256.615105 L533.086537,256.615105 C533.514754,256.615105 533.514754,256.400996 533.514754,256.186888 L533.514754,253.617584 L533.514754,253.617584 Z M478.91706,253.617584 L478.91706,251.690607 C478.91706,251.476498 478.91706,251.26239 478.488842,251.26239 L475.063105,251.26239 C474.848996,251.26239 474.634887,251.26239 474.634887,251.690607 L474.634887,255.544562 C474.634887,255.75867 474.634887,255.972779 475.063105,255.972779 L478.274734,255.972779 C478.488842,255.972779 478.702951,255.972779 478.702951,255.544562 C478.91706,254.688127 478.91706,254.25991 478.91706,253.617584 L478.91706,253.617584 Z" id="Shape"></path>
        </g>
    </g>
</svg>