<svg width="79" height="79" viewBox="0 0 79 79" xmlns="http://www.w3.org/2000/svg"><path d="M78.738 39.403c0 21.84-17.557 38.968-38.54 39.396C18.145 79.228.16 61.457.16 39.403.16 17.78 17.503.65 38.27.007 60.753-.42 78.738 17.564 78.738 39.403zm-46.034.215V64.24c0 .427.215.641.643.641h2.783c.643 0 .643-.214.643-.642V14.781c0-.428-.215-.428-.429-.428h-2.783c-.642 0-.642.214-.642.642-.215 8.136-.215 16.272-.215 24.623zm15.844-20.555c.215.214 0 .428 0 .642v40.039c0 .428 0 .428.429.428h2.997c.643 0 .643-.214.643-.642V19.277c0-.214 0-.428-.429-.428-1.07 0-2.355 0-3.64.214zm-3.853 20.555v-14.56c0-.428-.215-.642-.643-.642H41.27c-.428 0-.643 0-.643.642v28.905c0 .428.215.642.643.642h2.783c.428 0 .643-.214.643-.642V39.618zm-16.059 0V28.484c0-.428 0-.642-.642-.642h-1.713c-.428 0-1.284-.214-1.499 0-.428.428 0 1.07 0 1.712v20.983c0 .428.215.642.643.642h2.783c.428 0 .643-.214.643-.642-.215-3.64-.215-7.28-.215-10.92zm28.049-.215v11.134c0 .428 0 .642.642.642h2.783c.429 0 .643-.214.643-.642V28.27c0-.428 0-.428-.429-.428h-2.997c-.428 0-.642.214-.642.642v10.92zm-35.97.215v-5.139c0-.428 0-.428-.429-.428H17.29c-.214 0-.429 0-.429.428V44.97c0 .429.215.429.429.429h2.997c.428 0 .428-.215.428-.429v-5.352zm47.96 0v-2.57c0-.428 0-.428-.429-.428h-3.211c-.214 0-.428 0-.428.428v5.139c0 .214 0 .428.428.428h3.211c.429 0 .429-.214.429-.428v-2.57zm-54.598 0V37.69c0-.215 0-.429-.428-.429h-3.426c-.214 0-.428 0-.428.429v3.854c0 .214 0 .428.428.428h3.212c.214 0 .428 0 .428-.428.214-.857.214-1.285.214-1.927z" fill="#F00" fill-rule="evenodd"/></svg>