<svg width="32" height="60" viewBox="0 0 32 60" xmlns="http://www.w3.org/2000/svg"><title>Shape</title><path d="M11.912 25.697c2.243-1.254 4.485-1.847 6.992-1.781 3.364.132 6.266 1.319 8.179 4.155 1.187 1.715 1.45 3.694 1.055 5.739-.462 2.176-1.517 4.023-2.968 5.738-.066.066-.132.132-.132.198.66.792 1.32 1.451 1.847 2.243 2.374 3.166 3.628 6.728 3.034 10.685-.264 1.979-1.121 3.694-2.638 4.947-2.045 1.65-4.552 1.847-6.794.462-2.177-1.32-3.562-3.298-3.826-5.87-.198-1.584 0-3.1 1.055-4.42.858-1.055 1.913-1.319 3.1-.725 1.386.66 2.375 1.649 2.507 3.298.066.593-.066 1.187-.528 1.649-.395.461-.989.725-1.583.527a20.381 20.381 0 0 1-2.11-.923c0 1.649.066 3.364 1.319 4.815 1.121 1.32 2.902 1.78 4.551 1.121 2.77-1.121 4.156-3.364 4.353-6.266.198-2.506-.66-4.75-1.978-6.794-.792-1.253-1.847-2.374-2.77-3.562l-.396-.395c-.924.593-1.781 1.253-2.705 1.846-1.913 1.188-4.09 1.847-6.332 2.243-2.309.396-4.617.33-6.86-.33-2.176-.593-4.09-1.649-5.54-3.496-1.451-1.912-1.98-4.155-1.65-6.53.462-3.43 2.111-6.332 4.156-9.036.858-1.121 1.847-2.243 2.77-3.298.264-.264.264-.528.132-.857-1.385-3.496-1.978-7.19-2.11-10.95-.066-2.045.132-4.155.989-6.068 1.583-3.694 4.881-3.76 7.52-1.715 2.374 1.913 3.231 4.551 3.034 7.52-.198 3.1-1.386 5.804-3.1 8.31-1.122 1.517-2.375 2.968-3.562 4.42-.264.33-.33.527-.132.923.461.66.791 1.385 1.121 2.177zm-2.177-1.65c-.263.265-.461.462-.66.66-1.055 1.451-2.176 2.837-3.231 4.288-1.32 1.913-2.309 4.023-2.77 6.266-.33 1.847-.198 3.694.989 5.277 1.649 2.044 3.957 2.638 6.464 2.638 2.243 0 4.287-.528 6.332-1.385 1.979-.792 3.694-1.979 5.343-3.364-1.715-1.65-3.43-3.166-5.08-4.815-1.648-1.65-3.231-3.43-4.814-5.145-1.979 1.187-2.639 4.42-1.517 6.398.33.594.725 1.055 1.45 1.187.133 0 .265.198.463.33-.198.066-.396.264-.528.264-1.121-.132-1.979-.726-2.507-1.649-1.187-1.913-1.253-3.958-.395-6.002.461-.99 1.055-1.913 1.649-2.903-.396-.527-.792-1.253-1.188-2.044zm-.132-3.627c.198-.198.33-.264.462-.396.66-.66 1.32-1.319 1.913-2.045 1.78-2.044 3.43-4.221 4.353-6.793.594-1.517.858-3.035.528-4.684-.528-2.506-2.902-3.693-5.21-2.638-1.32.594-2.177 1.715-2.705 3.034-.858 1.979-1.055 4.156-.858 6.266.198 2.44.726 4.815 1.517 7.256zm3.76 7.387c.99 1.781 6.332 7.322 9.696 9.96.462-.66.99-1.319 1.385-1.978 1.386-2.375.858-5.013-1.253-6.794-1.913-1.65-4.221-2.309-6.728-2.111-1.055 0-2.11.264-3.1.923z" stroke="#FFF" stroke-width="2" fill="#FFF" fill-rule="evenodd"/></svg>