<svg width="17" height="14" viewBox="0 0 17 14" xmlns="http://www.w3.org/2000/svg"><g fill="#F00" fill-rule="evenodd"><path d="M8.248 13.548c-.156-.348-.074-.8.184-1.011L15.204 7 8.432 1.463c-.258-.21-.34-.663-.184-1.011.156-.349.491-.46.748-.25L16.54 6.37c.163.133.263.372.263.63s-.1.497-.263.63l-3.98 3.255-3.564 2.912a.442.442 0 0 1-.281.107c-.185 0-.365-.127-.467-.356z"/><path d="M14.722 7.737H.732c-.36 0-.65-.33-.65-.737s.29-.737.65-.737h13.99c.36 0 .651.33.651.737s-.291.737-.65.737z"/></g></svg>