<svg width="1027" height="402" viewBox="0 0 1027 402" xmlns="http://www.w3.org/2000/svg"><title>a-link</title><g fill="#F00" fill-rule="evenodd"><path d="M1025.806 401.743l.356-40.431s-24.902 9.416-37.155 11.925c-128.824 26.068-232.797-37.809-297.445-78.583-20.587-12.977-76.767-42.53-106.65-33.933-40.806 11.806-16.18 54.926-92.928 49.877-27.676-1.787-43.889-25.712-49.105-49.348-5.115-22.18 12.36-47.546 32.196-57.05 32.322-15.248 72.628 1.306 109.249 14.005 70.147 24.535 138.988-21.86 89.846-94.152-71.92-105.804-237.698-90.868-277.633-86.045C217.923 59.891 89.527 38.424.14.751l.86 396.1 1024.806 4.892z"/><path d="M543.578 253.403c0 21.84-17.557 38.968-38.54 39.396-22.053.429-40.038-17.342-40.038-39.396 0-21.624 17.343-38.753 38.111-39.396 22.482-.428 40.467 17.557 40.467 39.396zm-46.033.215v24.623c0 .427.214.641.642.641h2.783c.643 0 .643-.214.643-.642V228.781c0-.428-.215-.428-.429-.428h-2.783c-.642 0-.642.214-.642.642-.214 8.136-.214 16.272-.214 24.623zm15.844-20.555c.214.214 0 .428 0 .642v40.039c0 .428 0 .428.428.428h2.997c.643 0 .643-.214.643-.642v-40.253c0-.214 0-.428-.429-.428-1.07 0-2.355 0-3.64.214zm-3.854 20.555v-14.56c0-.428-.215-.642-.643-.642h-2.783c-.428 0-.642 0-.642.642v28.905c0 .428.214.642.642.642h2.783c.428 0 .643-.214.643-.642v-14.345zm-16.059 0v-11.134c0-.428 0-.642-.642-.642h-1.713c-.428 0-1.284-.214-1.499 0-.428.428 0 1.07 0 1.712v20.983c0 .428.215.642.643.642h2.783c.428 0 .643-.214.643-.642-.215-3.64-.215-7.28-.215-10.92zm28.049-.215v11.134c0 .428 0 .642.642.642h2.783c.429 0 .643-.214.643-.642V242.27c0-.428 0-.428-.428-.428h-2.998c-.428 0-.642.214-.642.642v10.92zm-35.97.215v-5.139c0-.428 0-.428-.429-.428h-2.997c-.214 0-.429 0-.429.428v10.491c0 .429.215.429.429.429h2.997c.428 0 .428-.215.428-.429v-5.352zm47.96 0v-2.57c0-.428 0-.428-.428-.428h-3.212c-.214 0-.428 0-.428.428v5.139c0 .214 0 .428.428.428h3.212c.428 0 .428-.214.428-.428v-2.57zm-54.598 0v-1.927c0-.215 0-.429-.428-.429h-3.426c-.214 0-.428 0-.428.429v3.854c0 .214 0 .428.428.428h3.212c.214 0 .428 0 .428-.428.214-.857.214-1.285.214-1.927z"/></g></svg>